<svg xmlns="http://www.w3.org/2000/svg" version="1.1" xmlns:xlink="http://www.w3.org/1999/xlink" xmlns:svgjs="http://svgjs.dev/svgjs" viewBox="0 0 1422 800"><defs><filter id="uuunion-blur" x="-100%" y="-100%" width="400%" height="400%" color-interpolation-filters="sRGB">
        <feGaussianBlur in="SourceGraphic" stdDeviation="2 0" result="blur"></feGaussianBlur>
        <feDropShadow stdDeviation="9.846153846153847" in="blur" dx="8" dy="8" flood-color="hsl(290, 93%, 74%)" flood-opacity="0.91" x="0%" y="0%" width="100%" height="100%"></feDropShadow>
      </filter><filter id="uuunion-blur2" x="-100%" y="-100%" width="400%" height="400%" color-interpolation-filters="sRGB">
        <feGaussianBlur in="SourceGraphic" stdDeviation="2 0" result="blur"></feGaussianBlur>
        <feDropShadow stdDeviation="9.846153846153847" in="blur" dx="-8" dy="-8" flood-color="hsl(290, 93%, 74%)" flood-opacity="0.91" x="0%" y="0%" width="100%" height="100%"></feDropShadow>
      </filter><linearGradient gradientTransform="rotate(0, 0.5, 0.5)" x1="50%" y1="0%" x2="50%" y2="100%" id="uuunion-grad"><stop stop-color="hsl(294, 91%, 94%)" offset="10%"></stop><stop stop-color="hsl(290, 93%, 74%)" offset="90%"></stop></linearGradient><linearGradient gradientTransform="rotate(0, 0.5, 0.5)" x1="50%" y1="0%" x2="50%" y2="100%" id="uuunion-grad2"><stop stop-color="hsl(294, 91%, 94%)" offset="25%"></stop><stop stop-color="hsl(290, 93%, 74%)" offset="100%"></stop></linearGradient><linearGradient gradientTransform="rotate(328, 0.5, 0.5)" x1="50%" y1="0%" x2="50%" y2="100%" id="uuunion-grad3"><stop stop-color="hsl(294, 91%, 94%)" offset="0%"></stop><stop stop-color="hsl(290, 93%, 74%)" offset="75%"></stop></linearGradient></defs><path d="M-129.03 -86.62Q-116.11 -85.28 -103.2 -83.65 -90.28 -81.82 -77.36 -79.9 -64.45 -77.98 -51.53 -76.17 -38.62 -74.56 -25.7 -73.26 -12.79 -72.32 0.12 -71.8 13.04 -71.72 25.95 -72.1 38.87 -72.9 51.78 -74.09 64.7 -75.61 77.62 -77.36 90.53 -79.25 103.45 -81.19 116.36 -83.06 129.28 -84.76 142.2 -86.21 155.11 -87.32 168.03 -88.02 180.94 -88.29 193.86 -88.11 206.78 -87.49 219.69 -86.46 232.61 -85.07 245.52 -83.41 258.44 -81.57 271.35 -79.64 284.27 -77.72 297.19 -75.94 310.1 -74.37 323.02 -73.11 335.93 -72.22 348.85 -71.76 361.77 -71.74 374.68 -72.18 387.6 -73.04 400.51 -74.28 413.43 -75.83 426.35 -77.61 439.26 -79.52 452.18 -81.45 465.09 -83.3 478.01 -84.98 490.93 -86.38 503.84 -87.43 516.76 -88.09 529.67 -88.29 542.59 -88.05 555.51 -87.37 568.42 -86.29 581.34 -84.86 594.25 -83.17 607.17 -81.31 620.08 -79.37 633 -77.47 645.92 -75.71 658.83 -74.18 671.75 -72.96 684.66 -72.13 697.58 -71.73 710.5 -71.78 723.41 -72.27 736.33 -73.19 749.24 -74.47 762.16 -76.06 775.08 -77.86 787.99 -79.78 800.91 -81.71 813.82 -83.54 826.74 -85.18 839.66 -86.54 852.57 -87.55 865.49 -88.14 878.4 -88.29 891.32 -87.99 904.24 -87.25 917.15 -86.11 930.07 -84.65 942.98 -82.93 955.9 -81.05 968.82 -79.11 981.73 -77.22 994.65 -75.49 1007.56 -73.99 1020.48 -72.83 1033.4 -72.05 1046.31 -71.71 1059.23 -71.82 1072.14 -72.37 1085.06 -73.34 1097.98 -74.67 1110.89 -76.29 1123.81 -78.11 1136.72 -80.04 1149.64 -81.96 1162.56 -83.78 1175.47 -85.39 1188.39 -86.7 1201.3 -87.65 1214.22 -88.19 1227.14 -88.27 1240.05 -87.91 1252.97 -87.12 1265.88 -85.93 1278.8 -84.43 1291.72 -82.68 1304.63 -80.79 1317.55 -78.85 1330.46 -76.98 1343.38 -75.27 1356.3 -73.82 1369.21 -72.7 1382.13 -71.98 1395.04 -71.7 1407.96 -71.87 1420.88 -72.48 1433.79 -73.5 1446.71 -74.88 1459.62 -76.53 1472.54 -78.37 1485.46 -80.3 1498.37 -82.22 1511.29 -84.01 1524.2 -85.58 1522.54 -70.8 1525.89 -56.01 1533.86 -41.23 1545.48 -26.44 1559.35 -11.66 1573.81 3.12 1587.11 17.91 1597.65 32.69 1604.16 47.48 1605.86 62.26 1602.53 77.05 1594.59 91.83 1582.99 106.62 1569.12 121.4 1554.66 136.19 1541.35 150.97 1530.79 165.76 1524.25 180.54 1522.53 195.33 1525.82 210.12 1533.74 224.9 1545.33 239.69 1559.18 254.47 1573.64 269.26 1586.97 284.04 1597.55 298.83 1604.11 313.61 1605.87 328.4 1602.6 343.18 1594.71 357.97 1583.14 372.75 1569.29 387.54 1554.83 402.33 1541.49 417.11 1530.89 431.9 1524.3 446.68 1522.52 461.47 1525.76 476.25 1533.62 491.04 1545.17 505.82 1559.01 520.61 1573.48 535.39 1586.82 550.18 1597.45 564.97 1604.06 579.75 1605.87 594.54 1602.67 609.32 1594.83 624.11 1583.29 638.89 1569.46 653.68 1555 668.46 1541.64 683.25 1531 698.03 1524.35 712.82 1522.51 727.6 1525.69 742.39 1533.51 757.18 1545.02 771.96 1558.84 786.75 1573.31 801.53 1586.68 816.32 1597.34 831.1 1604.01 845.89 1605.88 860.67 1592.12 866.12 1578.35 872.32 1564.59 878.94 1550.83 885.61 1537.06 891.98 1523.3 897.7 1509.53 902.45 1495.77 905.98 1482.01 908.1 1468.24 908.68 1454.48 907.71 1440.71 905.22 1426.95 901.36 1413.19 896.34 1399.42 890.43 1385.66 883.94 1371.89 877.25 1358.13 870.7 1344.36 864.66 1330.6 859.46 1316.84 855.37 1303.07 852.62 1289.31 851.37 1275.54 851.67 1261.78 853.52 1248.02 856.8 1234.25 861.35 1220.49 866.92 1206.72 873.2 1192.96 879.84 1179.2 886.5 1165.43 892.8 1151.67 898.4 1137.9 903.01 1124.14 906.35 1110.38 908.27 1096.61 908.64 1082.85 907.46 1069.08 904.77 1055.32 900.74 1041.56 895.58 1027.79 889.58 1014.03 883.04 1000.26 876.35 986.5 869.85 972.74 863.9 958.97 858.83 945.21 854.92 931.44 852.37 917.68 851.32 903.92 851.83 890.15 853.88 876.39 857.35 862.62 862.05 848.86 867.73 835.1 874.08 821.33 880.75 807.57 887.38 793.8 893.6 780.04 899.09 766.28 903.54 752.51 906.7 738.75 908.41 724.98 908.57 711.22 907.18 697.46 904.31 683.69 900.11 669.93 894.82 656.16 888.72 642.4 882.14 628.64 875.45 614.87 869.01 601.11 863.16 587.34 858.23 573.58 854.49 559.82 852.13 546.05 851.3 532.29 852.02 518.52 854.27 504.76 857.92 491 862.77 477.23 868.56 463.47 874.97 449.7 881.65 435.94 888.25 422.18 894.4 408.41 899.76 394.65 904.04 380.88 907.02 367.12 908.52 353.36 908.47 339.59 906.87 325.83 903.81 312.06 899.45 298.3 894.03 284.54 887.85 270.77 881.24 257.01 874.56 243.24 868.18 229.48 862.44 215.72 857.65 201.95 854.09 188.19 851.93 174.42 851.3 160.66 852.24 146.9 854.68 133.13 858.51 119.37 863.5 105.6 869.39 91.84 875.86 78.08 882.56 64.31 889.11 50.55 895.17 36.79 900.4 23.02 904.52 9.26 907.31 -4.5 908.61 -18.26 908.35 -32.02 906.54 -45.79 903.29 -59.55 898.78 -73.32 893.24 -87.08 886.97 -100.84 880.33 -114.61 873.67 -128.37 867.36 -142.14 861.73 -155.9 857.1 -155.28 842.35 -153.09 827.6 -149.58 812.86 -145.18 798.11 -140.42 783.37 -135.88 768.62 -132.09 753.88 -129.52 739.13 -128.47 724.38 -129.08 709.64 -131.26 694.89 -134.76 680.15 -139.16 665.4 -143.92 650.66 -148.47 635.91 -152.26 621.17 -154.84 606.42 -155.9 591.67 -155.3 576.93 -153.12 562.18 -149.63 547.44 -145.24 532.69 -140.48 517.95 -135.93 503.2 -132.13 488.45 -129.54 473.71 -128.47 458.96 -129.06 444.22 -131.23 429.47 -134.72 414.73 -139.1 399.98 -143.86 385.23 -148.42 370.49 -152.22 355.74 -154.82 341 -155.89 326.25 -155.32 311.51 -153.16 296.76 -149.68 282.01 -145.29 267.27 -140.54 252.52 -135.98 237.78 -132.17 223.03 -129.56 208.29 -128.48 193.54 -129.04 178.79 -131.19 164.05 -134.67 149.3 -139.05 134.56 -143.81 119.81 -148.37 105.07 -152.19 90.32 -154.8 75.58 -155.89 60.83 -155.33 46.08 -153.19 31.34 -149.72 16.59 -145.35 1.85 -140.59 -12.89 -136.03 -27.63 -132.2 -42.38 -129.58 -57.13 -128.48 -71.87 -129.03 -86.62" fill="url(#uuunion-grad)"></path><path d="M-129.04 -86.62Q-128.49 -71.87 -129.59 -57.13 -132.21 -42.38 -136.04 -27.64 -140.6 -12.89 -145.36 1.85 -149.73 16.59 -153.2 31.34 -155.34 46.08 -155.9 60.83 -154.81 75.57 -152.2 90.32 -148.38 105.07 -143.82 119.81 -139.06 134.56 -134.68 149.3 -131.2 164.05 -129.05 178.79 -128.49 193.54 -129.57 208.28 -132.18 223.03 -135.99 237.78 -140.55 252.52 -145.3 267.27 -149.69 282.01 -153.17 296.76 -155.33 311.5 -155.9 326.25 -154.83 341 -152.23 355.74 -148.43 370.49 -143.87 385.23 -134.95 387.14 -126.03 389.37 -117.1 391.85 -108.18 394.52 -99.26 397.33 -90.34 400.21 -81.41 403.08 -72.49 405.87 -63.57 408.53 -54.64 410.97 -45.72 413.15 -36.8 415.01 -27.88 416.51 -18.95 417.6 -2.09 418.43 0.88 418.48 11.4 414.82 21.97 410.48 32.61 405.53 43.31 400.02 54.07 394.06 64.9 387.76 75.79 381.23 86.75 374.62 97.77 368.04 108.84 361.63 119.97 355.51 131.16 349.8 142.39 344.58 153.67 339.94 164.99 335.92 176.34 332.56 187.73 329.85 199.14 327.78 210.58 326.31 222.03 325.36 233.49 324.85 244.95 324.68 256.41 324.73 267.86 324.89 279.3 325.02 290.72 325.01 302.12 324.74 313.49 324.1 324.82 323.01 336.12 321.39 347.37 319.18 358.58 316.37 369.74 312.93 380.85 308.89 391.9 304.29 402.9 299.19 413.85 293.66 424.73 287.81 435.56 281.73 446.34 275.53 457.06 269.35 467.72 263.28 478.33 257.44 488.9 251.94 499.42 246.85 509.9 242.25 520.34 238.19 530.75 234.7 541.13 231.79 551.49 229.44 561.84 227.63 572.18 226.29 582.51 225.36 592.85 224.75 603.2 224.36 613.56 224.09 623.96 223.82 634.38 223.46 644.84 222.9 655.35 222.03 665.91 220.79 676.54 219.1 687.22 216.92 697.98 214.2 708.82 210.95 719.74 207.17 730.74 202.89 741.84 198.16 753.03 193.04 764.32 187.62 775.71 181.98 787.2 176.21 798.79 170.43 810.49 164.73 822.29 159.2 834.19 153.94 846.19 149.02 858.29 144.51 870.48 140.45 882.76 136.88 895.13 133.8 907.57 131.22 920.09 129.11 932.67 127.41 945.32 126.08 958.01 125.05 970.75 124.22 983.51 123.52 996.3 122.85 1009.11 122.12 1021.92 121.23 1034.71 120.11 1047.5 118.68 1060.25 116.89 1072.96 114.67 1085.62 112.02 1098.21 108.9 1110.74 105.34 1123.18 101.34 1135.52 96.95 1147.76 92.22 1159.89 87.21 1171.9 81.99 1183.77 76.66 1195.5 71.29 1207.09 65.96 1218.53 60.77 1229.81 55.78 1240.92 51.07 1251.87 46.68 1262.65 42.68 1273.26 39.07 1283.69 35.88 1293.96 33.11 1304.05 30.73 1313.97 28.71 1323.72 27.01 1333.32 25.57 1342.75 24.32 1352.04 23.2 1361.18 22.11 1370.19 20.99 1379.07 19.76 1387.84 18.35 1396.51 16.7 1405.08 14.75 1413.57 12.47 1422 9.82 1407.31 -8.03 1395.02 -25.9 1387.14 -43.76 1384.95 -61.63 1388.81 -79.49 1398.1 -97.36 1411.29 -115.22 1426.22 -133.09 1413.87 -133.53 1401.51 -134.27 1389.15 -135.27 1376.79 -136.5 1364.43 -137.88 1352.08 -139.37 1339.72 -140.88 1327.36 -142.36 1315 -143.72 1302.64 -144.91 1290.29 -145.87 1277.93 -146.56 1265.57 -146.94 1253.21 -147 1240.85 -146.74 1228.49 -146.16 1216.14 -145.3 1203.78 -144.18 1191.42 -142.88 1179.06 -141.44 1166.7 -139.93 1154.35 -138.43 1141.99 -137 1129.63 -135.7 1117.27 -134.61 1104.91 -133.77 1092.56 -133.22 1080.2 -132.98 1067.84 -133.07 1055.48 -133.48 1043.12 -134.19 1030.76 -135.17 1018.41 -136.38 1006.05 -137.76 993.69 -139.24 981.33 -140.75 968.97 -142.23 956.62 -143.61 944.26 -144.81 931.9 -145.8 919.54 -146.51 907.18 -146.92 894.83 -147.01 882.47 -146.77 870.11 -146.22 857.75 -145.38 845.39 -144.29 833.04 -143 820.68 -141.57 808.32 -140.06 795.96 -138.56 783.6 -137.12 771.24 -135.81 758.89 -134.7 746.53 -133.83 734.17 -133.25 721.81 -132.99 709.45 -133.05 697.1 -133.43 684.74 -134.12 672.38 -135.08 660.02 -136.27 647.66 -137.63 635.31 -139.1 622.95 -140.62 610.59 -142.1 598.23 -143.49 585.87 -144.72 573.51 -145.72 561.16 -146.46 548.8 -146.9 536.44 -147.02 524.08 -146.81 511.72 -146.28 499.37 -145.47 487.01 -144.39 474.65 -143.12 462.29 -141.7 449.93 -140.2 437.58 -138.69 425.22 -137.24 412.86 -135.92 400.5 -134.79 388.14 -133.9 375.79 -133.29 363.43 -133 351.07 -133.03 338.71 -133.38 326.35 -134.05 313.99 -134.98 301.64 -136.16 289.28 -137.51 276.92 -138.97 264.56 -140.49 252.2 -141.98 239.85 -143.37 227.49 -144.62 215.13 -145.64 202.77 -146.41 190.41 -146.87 178.06 -147.02 165.7 -146.84 153.34 -146.34 140.98 -145.55 128.62 -144.5 116.26 -143.24 103.91 -141.83 91.55 -140.33 79.19 -138.82 66.83 -137.36 54.47 -136.03 42.12 -134.88 29.76 -133.96 17.4 -133.33 5.04 -133.01 -7.31 -133.01 -19.66 -133.34 -32.02 -133.98 -44.38 -134.89 -56.74 -136.05 -69.1 -137.38 -81.45 -138.84 -93.81 -140.35 -106.17 -141.85 -118.53 -143.26 -130.89 -144.51 -145.52 -138.52 -140.43 -116.55 -134.04 -101.6 -129.04 -86.62" fill="url(#uuunion-grad2)" filter="url(#uuunion-blur)"></path><path d="M1456 336.51Q1465.15 336.79 1474.3 336.66 1483.45 336.13 1492.6 335.21 1501.76 333.92 1510.91 332.29 1520.06 330.36 1529.21 328.18 1538.37 325.8 1547.52 323.28 1556.67 320.68 1565.82 318.07 1574.97 315.5 1584.13 313.04 1593.28 310.75 1602.43 308.68 1605.92 325.93 1602.6 343.18 1593 360.43 1578.7 377.68 1562.03 394.93 1545.71 412.18 1532.41 429.43 1524.3 446.68 1522.71 463.93 1527.9 481.18 1539.02 498.43 1554.24 515.68 1571.1 532.93 1586.82 550.18 1598.85 567.43 1605.22 584.68 1604.89 601.93 1597.91 619.18 1585.42 636.43 1569.46 653.68 1552.65 670.93 1537.72 688.18 1527.11 705.43 1522.57 722.68 1524.82 739.93 1533.51 757.18 1547.21 774.43 1563.68 791.67 1580.24 808.92 1594.18 826.17 1603.22 843.42 1605.88 860.67 1593.26 865.63 1580.63 871.25 1568.01 877.27 1555.38 883.42 1542.76 889.41 1530.13 894.96 1517.51 899.83 1504.88 903.79 1492.26 906.66 1479.63 908.31 1467.01 908.66 1454.38 907.69 1441.76 905.46 1429.13 902.06 1416.51 897.64 1403.88 892.42 1391.25 886.63 1378.63 880.53 1366 874.41 1353.38 868.54 1340.75 863.2 1328.13 858.63 1315.5 855.04 1302.88 852.6 1290.25 851.41 1277.63 851.53 1265 852.95 1252.38 855.62 1239.75 859.4 1227.13 864.13 1214.5 869.58 1201.88 875.51 1189.25 881.65 1176.63 887.71 1164 893.42 1151.38 898.51 1138.75 902.76 1126.13 905.96 1113.5 907.97 1100.88 908.69 1088.25 908.1 1075.63 906.23 1063 903.15 1050.38 899.01 1037.75 893.99 1025.13 888.34 1012.5 882.3 999.88 876.16 987.25 870.19 974.63 864.68 962 859.86 949.37 855.97 936.75 853.18 924.12 851.62 911.5 851.36 898.87 852.41 886.25 854.73 873.62 858.2 861 862.68 848.37 867.95 835.75 873.77 823.12 879.88 810.5 885.99 797.87 891.83 785.25 897.12 772.62 901.63 760 905.15 747.37 907.51 734.75 908.62 722.12 908.41 709.5 906.9 696.87 904.15 684.25 900.3 671.62 895.52 659 890.02 646.37 884.07 633.75 877.93 621.12 871.88 608.5 866.2 595.87 861.16 583.25 856.98 570.62 853.86 558 851.93 545.37 851.3 532.75 851.97 520.12 853.93 507.49 857.09 494.87 861.3 482.24 866.36 469.62 872.05 456.99 878.1 444.37 884.24 431.74 890.19 419.12 895.66 406.49 900.42 393.87 904.25 381.24 906.96 368.62 908.43 355.99 908.6 343.37 907.46 330.74 905.06 318.12 901.52 305.49 896.98 292.87 891.66 280.24 885.82 267.62 879.7 254.99 873.6 242.37 867.79 229.74 862.54 217.12 858.09 204.49 854.64 191.87 852.36 179.24 851.34 166.62 851.64 153.99 853.24 141.37 856.06 128.74 859.99 116.12 864.82 103.49 870.36 90.87 876.33 78.24 882.48 65.62 888.51 52.99 894.15 40.36 899.14 27.74 903.25 15.11 906.3 -3.74 903.31 -9.34 888.27 -8.26 878.05 -6.78 867.84 -4.99 857.63 -2.99 847.42 0.41 832.1 2.2 827 15.81 819.97 29.23 811.7 42.46 802.29 55.5 791.92 68.34 780.77 80.99 769.1 93.46 757.18 105.77 745.26 117.95 733.63 130 722.53 141.96 712.2 153.86 702.82 165.73 694.53 177.59 687.42 189.47 681.51 201.4 676.78 213.4 673.14 225.49 670.45 237.68 668.54 249.98 667.19 262.41 666.16 274.94 665.19 287.6 664.04 300.35 662.46 313.2 660.23 326.12 657.17 339.09 653.14 352.09 648.04 365.08 641.83 378.06 634.51 390.98 626.16 403.82 616.88 416.56 606.83 429.18 596.21 441.66 585.21 453.97 574.09 466.13 563.07 478.11 552.37 489.93 542.21 501.58 532.77 513.09 524.18 524.47 516.56 535.74 509.96 546.93 504.37 558.08 499.76 569.21 496.03 580.38 493.05 591.61 490.67 602.95 488.68 614.44 486.87 626.11 485.04 637.99 482.97 650.13 480.46 662.53 477.35 675.23 473.48 688.23 468.76 701.53 463.13 715.15 456.57 729.05 449.1 743.23 440.79 757.66 431.76 772.3 422.15 787.12 412.13 802.06 401.88 812.31 397.48 822.58 393.13 832.86 388.91 843.16 384.92 853.48 381.22 863.8 377.89 874.14 374.99 884.5 372.57 894.86 370.66 905.23 369.27 915.62 368.41 926.01 368.07 936.41 368.21 946.82 368.8 957.24 369.78 967.66 371.08 978.09 372.64 988.52 374.36 998.95 376.17 1009.39 377.97 1019.83 379.68 1030.27 381.2 1040.7 382.46 1051.14 383.4 1061.57 383.93 1072 384.02 1082.43 383.63 1092.85 382.74 1103.26 381.32 1113.67 379.4 1124.06 377 1134.45 374.13 1144.83 370.87 1155.19 367.26 1165.54 363.37 1175.88 359.29 1186.21 355.09 1196.51 350.86 1206.8 346.68 1217.08 342.65 1227.33 338.84 1237.56 335.32 1247.78 332.16 1257.97 329.42 1268.14 327.13 1278.29 325.33 1288.41 324.02 1298.5 323.22 1308.57 322.9 1318.62 323.03 1328.63 323.58 1338.62 324.49 1348.58 325.7 1358.51 327.13 1368.4 328.71 1378.27 330.36 1388.1 331.98 1397.9 333.51 1407.67 334.85 1417.41 335.93 1427.11 336.69 1436.77 337.07 1446.4 337.02 1456 336.51" fill="url(#uuunion-grad3)" filter="url(#uuunion-blur2)"></path></svg>